<mxfile host="65bd71144e">
    <diagram id="qWde49h8U6zzgNiGJ5Xi" name="ページ1">
        <mxGraphModel dx="936" dy="797" grid="1" gridSize="10" guides="1" tooltips="1" connect="1" arrows="1" fold="1" page="1" pageScale="1" pageWidth="827" pageHeight="1169" math="0" shadow="0">
            <root>
                <mxCell id="0"/>
                <mxCell id="1" parent="0"/>
                <mxCell id="7" value="Azure" style="whiteSpace=wrap;html=1;fillColor=none;labelPosition=center;verticalLabelPosition=middle;align=left;verticalAlign=top;fontSize=16;" vertex="1" parent="1">
                    <mxGeometry x="160" y="20" width="510" height="170" as="geometry"/>
                </mxCell>
                <mxCell id="16" value="" style="edgeStyle=none;html=1;spacing=0;" edge="1" parent="1">
                    <mxGeometry relative="1" as="geometry">
                        <mxPoint x="240" y="150" as="sourcePoint"/>
                        <mxPoint x="300" y="150" as="targetPoint"/>
                    </mxGeometry>
                </mxCell>
                <mxCell id="2" value="" style="aspect=fixed;html=1;points=[];align=center;image;fontSize=12;image=img/lib/azure2/ai_machine_learning/Bot_Services.svg;" vertex="1" parent="1">
                    <mxGeometry x="175" y="122" width="50" height="50" as="geometry"/>
                </mxCell>
                <mxCell id="3" value="" style="sketch=0;pointerEvents=1;shadow=0;dashed=0;html=1;strokeColor=#3700CC;fillColor=#6a00ff;labelPosition=center;verticalLabelPosition=bottom;verticalAlign=top;align=center;outlineConnect=0;shape=mxgraph.veeam2.microsoft_teams;fontColor=#ffffff;" vertex="1" parent="1">
                    <mxGeometry x="175" y="240" width="50" height="50" as="geometry"/>
                </mxCell>
                <mxCell id="4" value="" style="sketch=0;aspect=fixed;html=1;points=[];align=center;image;fontSize=12;image=img/lib/mscae/App_Services.svg;" vertex="1" parent="1">
                    <mxGeometry x="317" y="120" width="52" height="52" as="geometry"/>
                </mxCell>
                <mxCell id="5" value="" style="aspect=fixed;html=1;points=[];align=center;image;fontSize=12;image=img/lib/azure2/app_services/API_Management_Services.svg;" vertex="1" parent="1">
                    <mxGeometry x="459" y="121.5" width="53.08" height="49" as="geometry"/>
                </mxCell>
                <mxCell id="6" value="" style="aspect=fixed;html=1;points=[];align=center;image;fontSize=12;image=img/lib/azure2/compute/Function_Apps.svg;" vertex="1" parent="1">
                    <mxGeometry x="602.13" y="124" width="52.13" height="46" as="geometry"/>
                </mxCell>
                <mxCell id="8" value="Azure Bot" style="text;strokeColor=none;align=center;fillColor=none;html=1;verticalAlign=middle;whiteSpace=wrap;rounded=0;" vertex="1" parent="1">
                    <mxGeometry x="172" y="94" width="60" height="30" as="geometry"/>
                </mxCell>
                <mxCell id="9" value="App Service" style="text;strokeColor=none;align=center;fillColor=none;html=1;verticalAlign=middle;whiteSpace=wrap;rounded=0;" vertex="1" parent="1">
                    <mxGeometry x="313" y="85" width="60" height="30" as="geometry"/>
                </mxCell>
                <mxCell id="10" value="API Management" style="text;strokeColor=none;align=center;fillColor=none;html=1;verticalAlign=middle;whiteSpace=wrap;rounded=0;" vertex="1" parent="1">
                    <mxGeometry x="456.03999999999996" y="85" width="60" height="30" as="geometry"/>
                </mxCell>
                <mxCell id="11" value="Azure Functions" style="text;strokeColor=none;align=center;fillColor=none;html=1;verticalAlign=middle;whiteSpace=wrap;rounded=0;" vertex="1" parent="1">
                    <mxGeometry x="599.13" y="85" width="60" height="30" as="geometry"/>
                </mxCell>
                <mxCell id="12" value="Endpoint登録" style="shape=callout;whiteSpace=wrap;html=1;perimeter=calloutPerimeter;position2=0.5;size=50;position=0.5;base=28;direction=east;" vertex="1" parent="1">
                    <mxGeometry x="232" y="60" width="96.07" height="80" as="geometry"/>
                </mxCell>
                <mxCell id="14" value="" style="aspect=fixed;html=1;points=[];align=center;image;fontSize=12;image=img/lib/azure2/identity/Azure_Active_Directory.svg;" vertex="1" parent="1">
                    <mxGeometry x="40" y="124" width="54.69" height="50" as="geometry"/>
                </mxCell>
                <mxCell id="18" value="" style="edgeStyle=none;html=1;spacing=0;" edge="1" parent="1">
                    <mxGeometry relative="1" as="geometry">
                        <mxPoint x="388" y="150" as="sourcePoint"/>
                        <mxPoint x="448" y="150" as="targetPoint"/>
                    </mxGeometry>
                </mxCell>
                <mxCell id="19" value="" style="edgeStyle=none;html=1;spacing=0;" edge="1" parent="1">
                    <mxGeometry relative="1" as="geometry">
                        <mxPoint x="530" y="150" as="sourcePoint"/>
                        <mxPoint x="590" y="150" as="targetPoint"/>
                    </mxGeometry>
                </mxCell>
                <mxCell id="21" value="" style="edgeStyle=none;html=1;spacing=0;" edge="1" parent="1" source="3" target="2">
                    <mxGeometry relative="1" as="geometry">
                        <mxPoint x="140" y="260" as="sourcePoint"/>
                        <mxPoint x="308" y="310" as="targetPoint"/>
                    </mxGeometry>
                </mxCell>
                <mxCell id="22" value="API Request" style="shape=callout;whiteSpace=wrap;html=1;perimeter=calloutPerimeter;position2=0.5;size=50;position=0.5;base=28;direction=east;" vertex="1" parent="1">
                    <mxGeometry x="371.97" y="60" width="96.07" height="80" as="geometry"/>
                </mxCell>
                <mxCell id="23" value="" style="edgeStyle=none;html=1;spacing=0;" edge="1" parent="1">
                    <mxGeometry relative="1" as="geometry">
                        <mxPoint x="166" y="150" as="sourcePoint"/>
                        <mxPoint x="106" y="150" as="targetPoint"/>
                    </mxGeometry>
                </mxCell>
                <mxCell id="24" value="アプリ登録" style="shape=callout;whiteSpace=wrap;html=1;perimeter=calloutPerimeter;position2=0.56;size=50;position=0.5;base=28;direction=east;" vertex="1" parent="1">
                    <mxGeometry x="75.93" y="60" width="96.07" height="80" as="geometry"/>
                </mxCell>
                <mxCell id="25" value="Entra ID" style="text;strokeColor=none;align=center;fillColor=none;html=1;verticalAlign=middle;whiteSpace=wrap;rounded=0;" vertex="1" parent="1">
                    <mxGeometry x="37.35" y="94" width="60" height="30" as="geometry"/>
                </mxCell>
            </root>
        </mxGraphModel>
    </diagram>
</mxfile>